<svg width="149" height="31" viewBox="0 0 149 31" fill="none" xmlns="http://www.w3.org/2000/svg">
<g clip-path="url(#clip0_12_643)">
<path d="M12.8941 2.89435L14.8419 0.946533L29.5034 15.6081L14.8419 30.2696L12.894 28.3217L25.6078 15.6081L12.8941 2.89435Z" fill="#838383"/>
<path d="M10.3513 5.43708L12.2991 3.48926L24.4179 15.608L12.2991 27.7268L10.3513 25.779L20.5222 15.608L10.3513 5.43708Z" fill="#838383"/>
<path d="M0.18042 15.608L9.75645 6.03198L19.3325 15.608L9.75645 25.1841L7.80866 23.2363L15.4368 15.608L9.75645 9.92764L2.12824 17.5558L0.18042 15.608Z" fill="#838383"/>
<path d="M9.75642 11.1174L7.80863 13.0652L10.3514 15.608L5.26587 20.6935L7.21368 22.6412L14.247 15.608L9.75642 11.1174Z" fill="#838383"/>
<path d="M4.67096 20.0986L2.72314 18.1508L7.19333 13.6807L9.14116 15.6284L4.67096 20.0986Z" fill="#838383"/>
<path d="M142.694 10.3579C143.638 10.3579 144.481 10.5539 145.221 10.9461C145.976 11.3383 146.565 11.9192 146.986 12.689C147.422 13.4588 147.639 14.3884 147.639 15.4776V22.5582H145.178V15.848C145.178 14.7732 144.909 13.9526 144.371 13.3862C143.834 12.8052 143.1 12.5147 142.171 12.5147C141.241 12.5147 140.501 12.8052 139.949 13.3862C139.411 13.9526 139.142 14.7732 139.142 15.848V22.5582H136.681V15.848C136.681 14.7732 136.412 13.9526 135.875 13.3862C135.338 12.8052 134.604 12.5147 133.674 12.5147C132.745 12.5147 132.004 12.8052 131.452 13.3862C130.915 13.9526 130.646 14.7732 130.646 15.848V22.5582H128.162V10.5539H130.646V11.9265C131.053 11.4327 131.568 11.0478 132.193 10.7718C132.817 10.4959 133.485 10.3579 134.197 10.3579C135.156 10.3579 136.013 10.5612 136.768 10.9679C137.523 11.3745 138.104 11.9628 138.511 12.7326C138.874 12.0064 139.441 11.4327 140.21 11.0114C140.98 10.5757 141.808 10.3579 142.694 10.3579Z" fill="#838383"/>
<path d="M125.648 10.554V22.5582H123.164V21.1421C122.772 21.6359 122.257 22.0281 121.618 22.3185C120.993 22.5945 120.325 22.7325 119.613 22.7325C118.669 22.7325 117.819 22.5364 117.064 22.1443C116.323 21.7521 115.735 21.1711 115.3 20.4014C114.878 19.6316 114.668 18.702 114.668 17.6127V10.554H117.13V17.2423C117.13 18.3171 117.399 19.145 117.936 19.726C118.473 20.2924 119.206 20.5756 120.136 20.5756C121.066 20.5756 121.799 20.2924 122.337 19.726C122.889 19.145 123.164 18.3171 123.164 17.2423V10.554H125.648Z" fill="#838383"/>
<path d="M108.259 22.7543C107.314 22.7543 106.465 22.5872 105.71 22.2532C104.969 21.9046 104.381 21.4398 103.945 20.8589C103.509 20.2634 103.277 19.6025 103.248 18.8763H105.819C105.862 19.3846 106.102 19.8131 106.537 20.1617C106.987 20.4958 107.547 20.6628 108.215 20.6628C108.913 20.6628 109.45 20.5321 109.827 20.2706C110.22 19.9947 110.415 19.6461 110.415 19.2249C110.415 18.7747 110.198 18.4406 109.762 18.2227C109.341 18.0048 108.665 17.7652 107.736 17.5038C106.835 17.2569 106.102 17.0172 105.535 16.7849C104.969 16.5525 104.475 16.1966 104.054 15.7173C103.648 15.238 103.444 14.6062 103.444 13.8219C103.444 13.1828 103.633 12.6019 104.01 12.079C104.388 11.5416 104.925 11.1204 105.622 10.8154C106.334 10.5104 107.147 10.3579 108.063 10.3579C109.428 10.3579 110.525 10.7065 111.352 11.4036C112.195 12.0863 112.645 13.0231 112.703 14.214H110.22C110.176 13.6766 109.958 13.2482 109.566 12.9287C109.174 12.6091 108.643 12.4494 107.976 12.4494C107.322 12.4494 106.821 12.5728 106.472 12.8197C106.124 13.0666 105.949 13.3934 105.949 13.8001C105.949 14.1196 106.065 14.3884 106.298 14.6062C106.53 14.824 106.814 14.9984 107.147 15.1291C107.482 15.2453 107.976 15.3977 108.629 15.5866C109.5 15.819 110.212 16.0586 110.764 16.3055C111.33 16.5379 111.817 16.8865 112.224 17.3513C112.631 17.8161 112.841 18.4333 112.856 19.2031C112.856 19.8858 112.667 20.4958 112.289 21.0332C111.912 21.5705 111.374 21.9918 110.677 22.2968C109.995 22.6017 109.188 22.7543 108.259 22.7543Z" fill="#838383"/>
<path d="M92.3823 12.3187C92.8031 11.7667 93.3771 11.302 94.1036 10.9244C94.8293 10.5467 95.6504 10.3579 96.5653 10.3579C97.6106 10.3579 98.5622 10.6193 99.4191 11.1422C100.291 11.6505 100.973 12.3695 101.467 13.299C101.961 14.2286 102.208 15.2961 102.208 16.5016C102.208 17.7071 101.961 18.7892 101.467 19.7477C100.973 20.6919 100.291 21.4326 99.4191 21.97C98.5622 22.4928 97.6106 22.7543 96.5653 22.7543C95.6504 22.7543 94.8367 22.5727 94.1249 22.2096C93.413 21.832 92.8325 21.3672 92.3823 20.8153V28.2662H89.8987V10.5539H92.3823V12.3187ZM99.6808 16.5016C99.6808 15.6737 99.5064 14.9621 99.1574 14.3665C98.8239 13.7565 98.3738 13.299 97.8071 12.9941C97.2551 12.6745 96.6598 12.5147 96.0206 12.5147C95.396 12.5147 94.8008 12.6745 94.2341 12.9941C93.6821 13.3135 93.232 13.7783 92.883 14.3884C92.5495 14.9984 92.3823 15.7173 92.3823 16.5451C92.3823 17.3731 92.5495 18.0993 92.883 18.7238C93.232 19.3338 93.6821 19.7986 94.2341 20.1182C94.8008 20.4376 95.396 20.5974 96.0206 20.5974C96.6598 20.5974 97.2551 20.4376 97.8071 20.1182C98.3738 19.7841 98.8239 19.3048 99.1574 18.6802C99.5064 18.0557 99.6808 17.3295 99.6808 16.5016Z" fill="#838383"/>
<path d="M86.1806 8.96348C85.7298 8.96348 85.3522 8.811 85.0473 8.50597C84.7423 8.20099 84.5898 7.82336 84.5898 7.37311C84.5898 6.92286 84.7423 6.54523 85.0473 6.24023C85.3522 5.93522 85.7298 5.78271 86.1806 5.78271C86.6161 5.78271 86.9863 5.93522 87.2912 6.24023C87.5962 6.54523 87.7487 6.92286 87.7487 7.37311C87.7487 7.82336 87.5962 8.20099 87.2912 8.50597C86.9863 8.811 86.6161 8.96348 86.1806 8.96348ZM87.4005 10.5539V22.5582H84.9168V10.5539H87.4005Z" fill="#838383"/>
<path d="M76.9927 22.7543C75.8601 22.7543 74.836 22.5001 73.9212 21.9918C73.0061 21.4689 72.2871 20.7427 71.7643 19.8131C71.2414 18.8691 70.98 17.7797 70.98 16.5451C70.98 15.3252 71.2486 14.2431 71.7861 13.299C72.3234 12.355 73.0569 11.6288 73.9864 11.1204C74.9159 10.6121 75.9547 10.3579 77.102 10.3579C78.2492 10.3579 79.288 10.6121 80.2175 11.1204C81.1471 11.6288 81.8802 12.355 82.4175 13.299C82.9549 14.2431 83.2239 15.3252 83.2239 16.5451C83.2239 17.7652 82.9483 18.8473 82.3962 19.7914C81.8442 20.7354 81.0884 21.4689 80.1303 21.9918C79.1861 22.5001 78.1407 22.7543 76.9927 22.7543ZM76.9927 20.5974C77.632 20.5974 78.2272 20.4449 78.7793 20.1399C79.3459 19.8349 79.8034 19.3774 80.1523 18.7674C80.5005 18.1574 80.675 17.4166 80.675 16.5451C80.675 15.6737 80.5078 14.9403 80.1736 14.3447C79.84 13.7348 79.3965 13.2772 78.8445 12.9722C78.2932 12.6672 77.6972 12.5147 77.058 12.5147C76.4195 12.5147 75.8235 12.6672 75.2722 12.9722C74.7341 13.2772 74.306 13.7348 73.9864 14.3447C73.6668 14.9403 73.507 15.6737 73.507 16.5451C73.507 17.8379 73.8339 18.84 74.4878 19.5517C75.1557 20.2489 75.9906 20.5974 76.9927 20.5974Z" fill="#838383"/>
<path d="M63.8626 22.7543C62.7297 22.7543 61.7057 22.5001 60.7907 21.9918C59.8757 21.4689 59.1568 20.7427 58.6339 19.8131C58.111 18.8691 57.8496 17.7797 57.8496 16.5451C57.8496 15.3252 58.1183 14.2431 58.6557 13.299C59.193 12.355 59.9266 11.6288 60.8561 11.1204C61.7856 10.6121 62.8241 10.3579 63.9715 10.3579C65.1189 10.3579 66.1574 10.6121 67.087 11.1204C68.0165 11.6288 68.75 12.355 69.2874 13.299C69.8248 14.2431 70.0935 15.3252 70.0935 16.5451C70.0935 17.7652 69.8175 18.8473 69.2656 19.7914C68.7137 20.7354 67.9584 21.4689 66.9998 21.9918C66.0557 22.5001 65.01 22.7543 63.8626 22.7543ZM63.8626 20.5974C64.5017 20.5974 65.0972 20.4449 65.6491 20.1399C66.2155 19.8349 66.673 19.3774 67.0216 18.7674C67.3702 18.1574 67.5445 17.4166 67.5445 16.5451C67.5445 15.6737 67.3775 14.9403 67.0434 14.3447C66.7094 13.7348 66.2664 13.2772 65.7144 12.9722C65.1625 12.6672 64.567 12.5147 63.928 12.5147C63.2889 12.5147 62.6934 12.6672 62.1415 12.9722C61.6041 13.2772 61.1757 13.7348 60.8561 14.3447C60.5366 14.9403 60.3768 15.6737 60.3768 16.5451C60.3768 17.8379 60.7036 18.84 61.3572 19.5517C62.0253 20.2489 62.8604 20.5974 63.8626 20.5974Z" fill="#838383"/>
<path d="M50.7322 22.7543C49.5993 22.7543 48.5754 22.5001 47.6604 21.9918C46.7454 21.4689 46.0264 20.7427 45.5036 19.8131C44.9807 18.8691 44.7192 17.7797 44.7192 16.5451C44.7192 15.3252 44.9879 14.2431 45.5253 13.299C46.0627 12.355 46.7962 11.6288 47.7257 11.1204C48.6553 10.6121 49.6937 10.3579 50.8412 10.3579C51.9886 10.3579 53.027 10.6121 53.9566 11.1204C54.8861 11.6288 55.6196 12.355 56.1571 13.299C56.6944 14.2431 56.9632 15.3252 56.9632 16.5451C56.9632 17.7652 56.6871 18.8473 56.1352 19.7914C55.5834 20.7354 54.8281 21.4689 53.8695 21.9918C52.9254 22.5001 51.8796 22.7543 50.7322 22.7543ZM50.7322 20.5974C51.3713 20.5974 51.9668 20.4449 52.5187 20.1399C53.0852 19.8349 53.5427 19.3774 53.8913 18.7674C54.2398 18.1574 54.4141 17.4166 54.4141 16.5451C54.4141 15.6737 54.2471 14.9403 53.913 14.3447C53.579 13.7348 53.136 13.2772 52.584 12.9722C52.0322 12.6672 51.4366 12.5147 50.7976 12.5147C50.1585 12.5147 49.563 12.6672 49.0111 12.9722C48.4738 13.2772 48.0453 13.7348 47.7257 14.3447C47.4062 14.9403 47.2464 15.6737 47.2464 16.5451C47.2464 17.8379 47.5733 18.84 48.2268 19.5517C48.8949 20.2489 49.7301 20.5974 50.7322 20.5974Z" fill="#838383"/>
<path d="M39.0908 20.5539H44.2106V22.5582H36.6072V7.41675H39.0908V20.5539Z" fill="#838383"/>
<path fill-rule="evenodd" clip-rule="evenodd" d="M66.1532 24.789C66.7806 24.3076 67.2316 23.6326 67.4363 22.8688L69.8369 23.512C69.4906 24.8043 68.7277 25.9463 67.6662 26.7607C66.6047 27.5752 65.3043 28.0167 63.9663 28.0167C62.6284 28.0167 61.3278 27.5752 60.2664 26.7607C59.205 25.9463 58.4419 24.8043 58.0957 23.512L60.4963 22.8688C60.701 23.6326 61.152 24.3076 61.7794 24.789C62.4068 25.2704 63.1755 25.5314 63.9663 25.5314C64.7571 25.5314 65.5258 25.2704 66.1532 24.789Z" fill="#838383"/>
</g>
<defs>
<clipPath id="clip0_12_643">
<rect width="148.081" height="29.323" fill="white" transform="translate(0.18042 0.946533)"/>
</clipPath>
</defs>
</svg>
