<svg width="157" height="33" viewBox="0 0 157 33" fill="none" xmlns="http://www.w3.org/2000/svg">
<path d="M9.59277 0C11.5 0 13.0467 1.54598 13.0469 3.45312C13.0469 4.88419 12.1759 6.11184 10.9355 6.63574V17.9082L10.8076 18.1309L5.72266 26.9443C6.44804 27.5774 6.90723 28.5085 6.90723 29.5469C6.90703 31.454 5.36031 33 3.45312 33C1.54611 32.9998 0.000198403 31.4539 0 29.5469C0 27.6397 1.54598 26.093 3.45312 26.0928C3.63058 26.0928 3.80534 26.106 3.97559 26.1318L9.01758 17.3936V6.85742C7.38432 6.58333 6.13965 5.16427 6.13965 3.45312C6.13984 1.54607 7.6857 0.000136567 9.59277 0ZM18.0352 6.13965C19.9423 6.13979 21.4881 7.68567 21.4883 9.59277C21.4883 11.3039 20.2436 12.723 18.6104 12.9971V17.3779L24.0449 26.2109C24.3308 26.1342 24.6313 26.0928 24.9414 26.0928C26.8487 26.0928 28.3955 27.6396 28.3955 29.5469C28.3953 31.454 26.8486 33 24.9414 33C23.0344 32.9998 21.4885 31.4539 21.4883 29.5469C21.4883 28.6434 21.8354 27.8205 22.4033 27.2051L16.834 18.1543L16.6924 17.9229V12.7754C15.452 12.2515 14.5811 11.0239 14.5811 9.59277C14.5812 7.68558 16.1279 6.13965 18.0352 6.13965ZM3.45312 28.2051C2.71234 28.2053 2.1123 28.806 2.1123 29.5469C2.1125 30.2875 2.71246 30.8875 3.45312 30.8877C4.19395 30.8877 4.79472 30.2877 4.79492 29.5469C4.79492 28.8059 4.19408 28.2051 3.45312 28.2051ZM24.9414 28.2051C24.2007 28.2053 23.6006 28.8061 23.6006 29.5469C23.6008 30.2875 24.2008 30.8875 24.9414 30.8877C25.6822 30.8877 26.283 30.2877 26.2832 29.5469C26.2832 28.8059 25.6824 28.2051 24.9414 28.2051ZM18.0352 8.25098C17.2943 8.25098 16.6935 8.85194 16.6934 9.59277C16.6934 10.3337 17.2942 10.9346 18.0352 10.9346C18.776 10.9344 19.377 10.3336 19.377 9.59277C19.3768 8.85203 18.7759 8.25112 18.0352 8.25098ZM9.59277 2.1123C8.85206 2.11244 8.25117 2.71243 8.25098 3.45312C8.25098 4.19399 8.85194 4.79479 9.59277 4.79492C10.3337 4.79492 10.9346 4.19408 10.9346 3.45312C10.9344 2.71234 10.3336 2.1123 9.59277 2.1123Z" fill="url(#paint0_linear_12_479)"/>
<circle cx="14.6582" cy="20.0302" r="0.844186" fill="url(#paint1_linear_12_479)"/>
<circle cx="12.6629" cy="22.6395" r="1.15116" fill="url(#paint2_linear_12_479)"/>
<circle cx="15.7326" cy="25.7093" r="1.9186" fill="url(#paint3_linear_12_479)"/>
<path d="M41.1509 5.98238C41.3628 5.98238 41.5346 6.15418 41.5346 6.36611V7.79095C41.5346 8.00288 41.3628 8.17467 41.1509 8.17467H37.5672C37.3553 8.17467 37.1835 8.34647 37.1835 8.55839V18.6339C37.1835 18.8458 37.0117 19.0176 36.7998 19.0176H34.8502C34.6383 19.0176 34.4665 18.8458 34.4665 18.6339V8.55839C34.4665 8.34647 34.2947 8.17467 34.0828 8.17467H30.4794C30.2675 8.17467 30.0957 8.00287 30.0957 7.79095V6.36611C30.0957 6.15418 30.2675 5.98238 30.4794 5.98238H41.1509Z" fill="white"/>
<path d="M45.1229 19.0176C44.911 19.0176 44.7392 18.8458 44.7392 18.6339V6.36611C44.7392 6.15418 44.911 5.98238 45.1229 5.98238H54.1012C54.3132 5.98238 54.4849 6.15418 54.4849 6.36611V7.79095C54.4849 8.00288 54.3132 8.17467 54.1012 8.17467H47.8399C47.628 8.17467 47.4562 8.34647 47.4562 8.55839V11.03C47.4562 11.2419 47.628 11.4137 47.8399 11.4137H52.6049C52.8168 11.4137 52.9886 11.5855 52.9886 11.7974V13.1235C52.9886 13.3355 52.8168 13.5073 52.6049 13.5073H47.8399C47.628 13.5073 47.4562 13.6791 47.4562 13.891V16.4416C47.4562 16.6535 47.628 16.8253 47.8399 16.8253H54.3769C54.5888 16.8253 54.7606 16.9971 54.7606 17.209V18.6339C54.7606 18.8458 54.5888 19.0176 54.3769 19.0176H45.1229Z" fill="white"/>
<path d="M68.7674 15.3132C68.9699 15.3739 69.0863 15.5875 69.014 15.7861C68.7651 16.4701 68.4112 17.0535 67.9522 17.5363C67.4141 18.1025 66.7775 18.5239 66.0425 18.8004C65.3074 19.0769 64.5002 19.2151 63.6208 19.2151C62.3345 19.2151 61.2188 18.9452 60.2738 18.4053C59.3419 17.8655 58.62 17.0952 58.1081 16.0946C57.6093 15.0939 57.3599 13.8957 57.3599 12.5C57.3599 11.1043 57.6093 9.90612 58.1081 8.90544C58.62 7.90475 59.3419 7.13449 60.2738 6.59465C61.2188 6.0548 62.3214 5.78488 63.5814 5.78488C64.474 5.78488 65.2812 5.90997 66.0031 6.16014C66.725 6.39714 67.3353 6.76582 67.8341 7.26616C68.2709 7.69312 68.6074 8.21596 68.8435 8.83469C68.9137 9.01853 68.8187 9.22076 68.6376 9.29777L66.8963 10.0384C66.6836 10.1289 66.4415 10.0112 66.3596 9.79493C66.1421 9.22016 65.8461 8.79857 65.4715 8.53018C65.0121 8.18784 64.4215 8.01667 63.6996 8.01667C62.9908 8.01667 62.3673 8.18784 61.8292 8.53018C61.3041 8.87252 60.8972 9.37944 60.6085 10.051C60.3197 10.7093 60.1753 11.5256 60.1753 12.5C60.1753 13.4612 60.3066 14.2775 60.5691 14.949C60.8447 15.6206 61.2451 16.1275 61.7701 16.4698C62.2951 16.8122 62.9383 16.9833 63.6996 16.9833C64.4083 16.9833 65.0187 16.7924 65.5306 16.4106C65.9671 16.0931 66.2948 15.639 66.5136 15.0484C66.5886 14.8458 66.804 14.7238 67.0109 14.7859L68.7674 15.3132Z" fill="white"/>
<path d="M83.2132 5.98238C83.4251 5.98238 83.5969 6.15418 83.5969 6.36611V18.6339C83.5969 18.8458 83.4251 19.0176 83.2132 19.0176H81.2637C81.0518 19.0176 80.88 18.8458 80.88 18.6339V6.36611C80.88 6.15418 81.0518 5.98238 81.2637 5.98238H83.2132ZM74.7669 5.98238C74.9788 5.98238 75.1506 6.15418 75.1506 6.36611V18.6339C75.1506 18.8458 74.9788 19.0176 74.7669 19.0176H72.8174C72.6054 19.0176 72.4336 18.8458 72.4336 18.6339V6.36611C72.4336 6.15418 72.6054 5.98238 72.8174 5.98238H74.7669ZM81.9138 11.3347C82.1257 11.3347 82.2975 11.5065 82.2975 11.7184V13.1433C82.2975 13.3552 82.1257 13.527 81.9138 13.527H74.1759C73.9639 13.527 73.7921 13.3552 73.7921 13.1433V11.7184C73.7921 11.5065 73.9639 11.3347 74.1759 11.3347H81.9138Z" fill="white"/>
<path d="M98.7524 5.98238C98.9643 5.98238 99.1361 6.15418 99.1361 6.36611V18.6339C99.1361 18.8458 98.9643 19.0176 98.7524 19.0176H96.2438C96.1084 19.0176 95.983 18.9462 95.9139 18.8297L91.4774 11.3545L90.3585 9.22786C90.3564 9.22391 90.3523 9.22144 90.3479 9.22144C90.3411 9.22144 90.3356 9.22708 90.3359 9.23387L90.4142 11.473V18.6339C90.4142 18.8458 90.2424 19.0176 90.0305 19.0176H88.3565C88.1446 19.0176 87.9728 18.8458 87.9728 18.6339V6.36611C87.9728 6.15418 88.1446 5.98238 88.3565 5.98238H90.8457C90.981 5.98238 91.1063 6.05363 91.1755 6.16989L95.6119 13.6258L96.7274 15.7657C96.7316 15.7736 96.7397 15.7786 96.7487 15.7786C96.7623 15.7786 96.7731 15.7673 96.7727 15.7537L96.6948 13.527V6.36611C96.6948 6.15418 96.8666 5.98238 97.0785 5.98238H98.7524Z" fill="white"/>
<path d="M109.123 5.78488C110.409 5.78488 111.519 6.0548 112.451 6.59465C113.382 7.13449 114.098 7.90475 114.597 8.90544C115.108 9.90612 115.364 11.1043 115.364 12.5C115.364 13.8957 115.108 15.0939 114.597 16.0946C114.098 17.0952 113.382 17.8655 112.451 18.4053C111.519 18.9452 110.409 19.2151 109.123 19.2151C107.837 19.2151 106.721 18.9452 105.776 18.4053C104.844 17.8655 104.122 17.0952 103.61 16.0946C103.112 15.0939 102.862 13.8957 102.862 12.5C102.862 11.1043 103.112 9.90612 103.61 8.90544C104.122 7.90475 104.844 7.13449 105.776 6.59465C106.721 6.0548 107.837 5.78488 109.123 5.78488ZM109.123 8.01667C108.388 8.01667 107.765 8.18784 107.253 8.53018C106.741 8.87252 106.347 9.37944 106.071 10.051C105.809 10.7093 105.678 11.5256 105.678 12.5C105.678 13.4612 105.809 14.2775 106.071 14.949C106.347 15.6206 106.741 16.1275 107.253 16.4698C107.765 16.8122 108.388 16.9833 109.123 16.9833C109.845 16.9833 110.462 16.8122 110.974 16.4698C111.486 16.1275 111.873 15.6206 112.136 14.949C112.411 14.2775 112.549 13.4612 112.549 12.5C112.549 11.5256 112.411 10.7093 112.136 10.051C111.873 9.37944 111.486 8.87252 110.974 8.53018C110.462 8.18784 109.845 8.01667 109.123 8.01667Z" fill="white"/>
<path d="M121.807 16.4416C121.807 16.6535 121.978 16.8253 122.19 16.8253H128.274C128.486 16.8253 128.658 16.9971 128.658 17.209V18.6339C128.658 18.8458 128.486 19.0176 128.274 19.0176H119.473C119.261 19.0176 119.09 18.8458 119.09 18.6339V6.36611C119.09 6.15418 119.261 5.98238 119.473 5.98238H121.423C121.635 5.98238 121.807 6.15418 121.807 6.36611V16.4416Z" fill="white"/>
<path d="M142.993 18.5026C143.084 18.7529 142.898 19.0176 142.632 19.0176H140.639C140.475 19.0176 140.329 18.9131 140.276 18.7576L139.37 16.0978C139.317 15.9423 139.171 15.8378 139.007 15.8378H134.575C134.411 15.8378 134.265 15.9423 134.212 16.0978L133.306 18.7576C133.253 18.9131 133.107 19.0176 132.943 19.0176H130.99C130.723 19.0176 130.538 18.7529 130.629 18.5026L135.095 6.23485C135.15 6.08327 135.294 5.98238 135.455 5.98238H138.166C138.328 5.98238 138.472 6.08327 138.527 6.23485L142.993 18.5026ZM134.911 13.8233H138.671L136.781 8.13517L134.911 13.8233Z" fill="white"/>
<path d="M146.476 19.0176C146.264 19.0176 146.092 18.8458 146.092 18.6339V6.36611C146.092 6.15418 146.264 5.98238 146.476 5.98238H151.782C153.357 5.98238 154.519 6.29181 155.267 6.91065C156.015 7.52949 156.389 8.40509 156.389 9.53745C156.389 10.2353 156.179 10.8541 155.759 11.394C155.341 11.9317 154.727 12.2735 153.918 12.4193C153.912 12.4203 153.908 12.4251 153.908 12.4307C153.908 12.4365 153.912 12.4414 153.918 12.4422C154.819 12.5749 155.511 12.9168 155.995 13.4678C156.481 14.0208 156.724 14.6791 156.724 15.4428C156.724 16.562 156.317 17.4376 155.503 18.0696C154.702 18.7016 153.528 19.0176 151.979 19.0176H146.476ZM148.73 16.5799C148.73 16.7918 148.902 16.9636 149.114 16.9636H151.742C152.477 16.9636 153.022 16.8122 153.377 16.5093C153.731 16.2065 153.908 15.7851 153.908 15.2453C153.908 14.6923 153.731 14.2709 153.377 13.9813C153.022 13.6916 152.477 13.5468 151.742 13.5468H149.114C148.902 13.5468 148.73 13.7186 148.73 13.9305V16.5799ZM148.73 11.0695C148.73 11.2814 148.902 11.4532 149.114 11.4532H151.427C152.858 11.4532 153.573 10.8936 153.573 9.77445C153.573 8.65526 152.858 8.09567 151.427 8.09567H149.114C148.902 8.09567 148.73 8.26747 148.73 8.47939V11.0695Z" fill="white"/>
<path d="M35.4879 23.163C36.1223 23.163 36.6134 23.339 36.9614 23.691C37.3093 24.0389 37.4832 24.5383 37.4832 25.1891C37.4832 25.8358 37.3093 26.3351 36.9614 26.6871C36.6134 27.0391 36.1223 27.2151 35.4879 27.2151H33.9223V23.163H35.4879ZM35.4449 26.5398C35.8296 26.5398 36.1182 26.4252 36.3106 26.196C36.507 25.9627 36.6053 25.627 36.6053 25.1891C36.6053 24.7511 36.507 24.4175 36.3106 24.1883C36.1182 23.955 35.8296 23.8384 35.4449 23.8384H34.7695V26.5398H35.4449ZM39.4893 23.163V27.2151H38.6421V23.163H39.4893ZM42.5135 27.2765C42.141 27.2765 41.8136 27.1947 41.5311 27.0309C41.2528 26.8672 41.0359 26.6298 40.8803 26.3187C40.7248 26.0077 40.647 25.6332 40.647 25.1952C40.647 24.7614 40.7289 24.3889 40.8926 24.0778C41.0563 23.7627 41.2876 23.5212 41.5864 23.3534C41.8893 23.1855 42.2392 23.1016 42.6363 23.1016C43.0742 23.1016 43.4283 23.1835 43.6984 23.3472C43.9685 23.5068 44.1834 23.7565 44.343 24.0962L43.5572 24.4339C43.4917 24.217 43.3791 24.0574 43.2195 23.955C43.064 23.8486 42.8716 23.7954 42.6424 23.7954C42.4132 23.7954 42.2147 23.8507 42.0469 23.9612C41.879 24.0676 41.7501 24.2252 41.6601 24.4339C41.57 24.6386 41.525 24.8903 41.525 25.1891C41.525 25.496 41.568 25.756 41.6539 25.9688C41.7399 26.1775 41.8668 26.3351 42.0346 26.4415C42.2065 26.5439 42.4173 26.595 42.667 26.595C42.802 26.595 42.9269 26.5787 43.0415 26.5459C43.1602 26.5132 43.2625 26.464 43.3484 26.3986C43.4344 26.3331 43.5019 26.2492 43.551 26.1468C43.6002 26.0445 43.6247 25.9258 43.6247 25.7907V25.6987H42.5626V25.0786H44.3553V27.2151H43.7598L43.6984 26.331L43.8457 26.4354C43.7557 26.7055 43.5961 26.9143 43.3669 27.0616C43.1417 27.2049 42.8573 27.2765 42.5135 27.2765ZM46.4407 23.163V27.2151H45.5934V23.163H46.4407ZM51.0058 23.163V23.8445H49.649V27.2151H48.8017V23.8445H47.4388V23.163H51.0058ZM55.0015 27.2151H54.1235L53.7858 26.2267H52.2325L51.8949 27.2151H51.0292L52.5088 23.163H53.5218L55.0015 27.2151ZM52.4229 25.6004H53.5955L53.0061 23.8322L52.4229 25.6004ZM56.7568 26.5336H58.8933V27.2151H55.9095V23.163H56.7568V26.5336ZM63.4171 23.1016C63.7855 23.1016 64.1089 23.1651 64.3872 23.292C64.6655 23.4188 64.9029 23.6071 65.0994 23.8568L64.6266 24.4032C64.4588 24.1904 64.2746 24.0348 64.0741 23.9366C63.8776 23.8343 63.6484 23.7831 63.3864 23.7831C63.2145 23.7831 63.0713 23.8056 62.9567 23.8507C62.8462 23.8957 62.7643 23.955 62.7111 24.0287C62.662 24.1024 62.6374 24.1842 62.6374 24.2743C62.6374 24.3848 62.6804 24.4789 62.7663 24.5567C62.8523 24.6304 62.9997 24.6918 63.2084 24.7409L63.9636 24.9128C64.3647 25.0028 64.6512 25.1379 64.8231 25.318C64.9991 25.494 65.0871 25.7232 65.0871 26.0056C65.0871 26.2717 65.0175 26.5009 64.8783 26.6933C64.7392 26.8815 64.5448 27.0268 64.2951 27.1292C64.0454 27.2274 63.7589 27.2765 63.4356 27.2765C63.1531 27.2765 62.8932 27.2438 62.6558 27.1783C62.4225 27.1087 62.2138 27.0146 62.0296 26.8959C61.8454 26.7772 61.6919 26.64 61.5691 26.4845L62.048 25.9135C62.1422 26.0445 62.2588 26.1612 62.398 26.2635C62.5371 26.3658 62.6947 26.4477 62.8707 26.5091C63.0508 26.5664 63.2391 26.595 63.4356 26.595C63.6034 26.595 63.7446 26.5766 63.8592 26.5398C63.9779 26.4988 64.0659 26.4436 64.1232 26.374C64.1846 26.3003 64.2153 26.2123 64.2153 26.11C64.2153 26.0036 64.1784 25.9135 64.1048 25.8399C64.0352 25.7621 63.9042 25.7027 63.7118 25.6618L62.8891 25.4776C62.6517 25.4203 62.4471 25.3467 62.2752 25.2566C62.1074 25.1625 61.9784 25.0438 61.8884 24.9005C61.8024 24.7532 61.7595 24.5792 61.7595 24.3787C61.7595 24.1372 61.825 23.9202 61.9559 23.7279C62.0869 23.5355 62.2752 23.384 62.5208 23.2735C62.7704 23.1589 63.0692 23.1016 63.4171 23.1016ZM66.1956 27.2151V23.163H69.2347V23.8445H67.0429V24.8514H68.7681V25.5022H67.0429V26.5336H69.3206V27.2151H66.1956ZM72.1744 23.163C72.6328 23.163 72.993 23.2735 73.2549 23.4946C73.5169 23.7156 73.6479 24.0123 73.6479 24.3848C73.6479 24.7818 73.5169 25.0867 73.2549 25.2996C72.993 25.5083 72.6348 25.6127 72.1805 25.6127L72.0946 25.6618H71.2227V27.2151H70.3878V23.163H72.1744ZM72.0761 25.0172C72.3135 25.0172 72.4895 24.9701 72.6041 24.876C72.7228 24.7777 72.7822 24.6283 72.7822 24.4278C72.7822 24.2272 72.7228 24.0799 72.6041 23.9857C72.4895 23.8875 72.3135 23.8384 72.0761 23.8384H71.2227V25.0172H72.0761ZM72.5734 25.1952L73.8873 27.2151H72.9357L71.849 25.4408L72.5734 25.1952ZM78.3133 23.163L76.8398 27.2151H75.8513L74.3717 23.163H75.2681L76.1215 25.7416L76.3548 26.5398L76.5819 25.7478L77.4415 23.163H78.3133ZM80.081 23.163V27.2151H79.2337V23.163H80.081ZM84.9102 26.0977C84.8324 26.3597 84.7096 26.5787 84.5418 26.7547C84.374 26.9307 84.1755 27.0616 83.9463 27.1476C83.717 27.2335 83.4653 27.2765 83.1911 27.2765C82.79 27.2765 82.4421 27.1926 82.1474 27.0248C81.8568 26.857 81.6317 26.6175 81.472 26.3065C81.3165 25.9954 81.2387 25.6229 81.2387 25.1891C81.2387 24.7552 81.3165 24.3827 81.472 24.0717C81.6317 23.7606 81.8568 23.5212 82.1474 23.3534C82.4421 23.1855 82.7859 23.1016 83.1788 23.1016C83.4571 23.1016 83.7089 23.1405 83.934 23.2183C84.1591 23.292 84.3494 23.4066 84.505 23.5621C84.6646 23.7176 84.7812 23.9141 84.8549 24.1515L84.0875 24.4769C84.0179 24.2313 83.9115 24.0574 83.7682 23.955C83.625 23.8486 83.4408 23.7954 83.2157 23.7954C82.9946 23.7954 82.8002 23.8486 82.6324 23.955C82.4687 24.0614 82.3418 24.219 82.2517 24.4278C82.1617 24.6324 82.1167 24.8862 82.1167 25.1891C82.1167 25.4879 82.1576 25.7416 82.2395 25.9504C82.3254 26.1591 82.4503 26.3167 82.614 26.4231C82.7777 26.5295 82.9783 26.5827 83.2157 26.5827C83.4367 26.5827 83.627 26.5234 83.7866 26.4047C83.9503 26.286 84.065 26.1059 84.1304 25.8644L84.9102 26.0977ZM85.9393 27.2151V23.163H88.9783V23.8445H86.7865V24.8514H88.5117V25.5022H86.7865V26.5336H89.0643V27.2151H85.9393Z" fill="white"/>
<defs>
<linearGradient id="paint0_linear_12_479" x1="14.5815" y1="3.45349" x2="14.1978" y2="33" gradientUnits="userSpaceOnUse">
<stop stop-color="#E46CAA"/>
<stop offset="1" stop-color="#8334B6"/>
</linearGradient>
<linearGradient id="paint1_linear_12_479" x1="14.681" y1="19.3627" x2="14.6641" y2="20.8745" gradientUnits="userSpaceOnUse">
<stop stop-color="#E46CAA"/>
<stop offset="1" stop-color="#8334B6"/>
</linearGradient>
<linearGradient id="paint2_linear_12_479" x1="12.694" y1="21.7293" x2="12.671" y2="23.7908" gradientUnits="userSpaceOnUse">
<stop stop-color="#E46CAA"/>
<stop offset="1" stop-color="#8334B6"/>
</linearGradient>
<linearGradient id="paint3_linear_12_479" x1="15.7844" y1="24.1923" x2="15.746" y2="27.6281" gradientUnits="userSpaceOnUse">
<stop stop-color="#E46CAA"/>
<stop offset="1" stop-color="#8334B6"/>
</linearGradient>
</defs>
</svg>
