<svg width="332" height="333" viewBox="0 0 332 333" fill="none" xmlns="http://www.w3.org/2000/svg">
<g opacity="0.5" filter="url(#filter0_f_56_195)">
<path fill-rule="evenodd" clip-rule="evenodd" d="M106.912 78.0011C115.847 70.8473 131.397 75.349 143.561 82.2514C155.499 89.0255 162.012 105.502 172.755 115.362C179.858 121.882 187.729 126.56 195.775 130.176C209.923 136.533 227.001 131.367 238.102 144.727C247.556 156.104 239.23 172.015 242.25 186.107C245.678 202.101 258.988 218.53 257.082 233.273C255.226 247.633 241.681 252.867 232.544 261.191C223.722 269.228 215.42 278.151 203.992 281.641C192.39 285.183 179.323 286.161 166.166 281.46C153.265 276.85 138.442 269.07 130.404 255.347C121.589 240.295 132.821 220.574 122.394 206.722C110.97 191.548 86.7293 200.867 77.0067 184.417C69.0184 170.902 82.6075 158.634 86.6876 146.31C90.0489 136.157 95.963 128.253 99.0268 117.904C102.813 105.116 97.6387 85.4248 106.912 78.0011Z" fill="url(#paint0_linear_56_195)"/>
</g>
<defs>
<filter id="filter0_f_56_195" x="0.53643" y="0.374756" width="330.731" height="358.274" filterUnits="userSpaceOnUse" color-interpolation-filters="sRGB">
<feFlood flood-opacity="0" result="BackgroundImageFix"/>
<feBlend mode="normal" in="SourceGraphic" in2="BackgroundImageFix" result="shape"/>
<feGaussianBlur stdDeviation="37" result="effect1_foregroundBlur_56_195"/>
</filter>
<linearGradient id="paint0_linear_56_195" x1="121.136" y1="96.9045" x2="219.541" y2="273.75" gradientUnits="userSpaceOnUse">
<stop stop-color="#E46CAA"/>
<stop offset="1" stop-color="#8334B6"/>
</linearGradient>
</defs>
</svg>
